#!OML:ASF E:\Style4\Style4.ASF
:FULLY-SPECIFIED
:DEGREES
2730
root -0.20566 17.8652 -1.79511 -0.646647 -1.66451 1.26198
lowerback 4.0196 2.35042 -0.636286
upperback 0.914067 3.08767 -1.15844
thorax -1.28193 1.54321 -0.986666
lowerneck -3.00464 -4.93217 -6.99601
upperneck 13.4795 -6.82929 5.36168
head 4.9606 -3.39256 2.43436
rclavicle 3.72721e-016 4.37326e-015
rhumerus 49.2028 9.34555 -19.1599
rradius 94.6576
rwrist -39.6346
rhand -7.61098 30.2379
rfingers 7.12502
rthumb 18.2831 1.0771
lclavicle 3.72721e-016 4.37326e-015
lhumerus 2.58171 -45.6583 88.0772
lradius 96.9953
lwrist 4.91511
lhand -32.3796 9.15353
lfingers 7.12502
lthumb -5.6152 39.0591
rfemur -9.75069 1.72837 17.8332
rtibia 28.9044
rfoot -17.1418 -14.4799
rtoes -12.5043
lfemur -7.35803 -3.28352 -19.8458
ltibia 26.6695
lfoot -18.6755 10.0844
ltoes -14.8769
2731
root -0.207053 17.8574 -1.79363 -0.693148 -1.64215 1.32559
lowerback 4.02596 2.34952 -0.772534
upperback 0.898396 3.0806 -1.14792
thorax -1.30939 1.54 -0.900414
lowerneck -2.88522 -4.89163 -7.05861
upperneck 13.4044 -6.76592 5.30166
head 4.91363 -3.36994 2.43334
rclavicle 1.04983e-014 1.74931e-014
rhumerus 49.0557 10.7343 -17.9027
rradius 95.5296
rwrist -39.5974
rhand -7.24607 30.1038
rfingers 7.12502
rthumb 18.6341 0.976336
lclavicle 1.04983e-014 1.74931e-014
lhumerus 2.36388 -45.6044 88.274
lradius 97.1
lwrist 4.83602
lhand -32.4128 8.96318
lfingers 7.12502
lthumb -5.6473 38.8679
rfemur -9.82949 1.72006 17.7638
rtibia 29.0336
rfoot -17.1427 -14.6962
rtoes -13.7874
lfemur -7.38316 -3.2248 -19.9055
ltibia 26.7963
lfoot -18.6974 10.0399
ltoes -15.3211
2732
root -0.207846 17.8512 -1.79307 -0.755542 -1.59676 1.35819
lowerback 4.06881 2.33159 -0.848992
upperback 0.865527 3.05241 -1.14122
thorax -1.37166 1.52611 -0.852465
lowerneck -2.74041 -4.85629 -7.17789
upperneck 13.3732 -6.71658 5.29834
head 4.88054 -3.35413 2.45852
rclavicle 7.30534e-015 -2.5842e-015
rhumerus 48.9465 12.1565 -16.6408
rradius 96.4431
rwrist -39.9239
rhand -6.52741 29.9856
rfingers 7.12502
rthumb 19.3253 0.925806
lclavicle 7.30534e-015 -2.5842e-015
lhumerus 2.12205 -45.6047 88.4226
lradius 97.2492
lwrist 4.70448
lhand -32.5084 9.26061
lfingers 7.12502
lthumb -5.73963 39.1629
rfemur -9.83322 1.669 17.7231
rtibia 29.118
rfoot -17.1638 -14.7891
rtoes -14.3682
lfemur -7.40569 -3.20759 -19.938
ltibia 26.9491
lfoot -18.7074 9.98275
ltoes -15.3532
2733
root -0.208846 17.8459 -1.79061 -0.761931 -1.55442 1.35909
lowerback 4.024 2.35276 -0.832609
upperback 0.854634 3.0815 -1.17157
thorax -1.35505 1.5406 -0.892378
lowerneck -2.67154 -4.87468 -7.26312
upperneck 13.3685 -6.73701 5.28103
head 4.87141 -3.37027 2.46738
rclavicle 3.28243e-014 -1.70955e-014
rhumerus 48.7416 13.5083 -15.3683
rradius 97.34
rwrist -40.1282
rhand -6.19189 29.9505
rfingers 7.12502
rthumb 19.6479 0.923381
lclavicle 3.28243e-014 -1.70955e-014
lhumerus 2.09612 -45.7816 88.3851
lradius 97.3993
lwrist 4.57967
lhand -32.6263 9.52259
lfingers 7.12502
lthumb -5.85345 39.4217
rfemur -9.86141 1.59612 17.7186
rtibia 29.2071
rfoot -17.252 -14.7529
rtoes -14.1681
lfemur -7.46444 -3.22238 -19.9408
ltibia 27.0824
lfoot -18.6987 9.95609
ltoes -15.4049
2734
root -0.210512 17.8426 -1.78611 -0.797306 -1.50449 1.35935
lowerback 3.9819 2.37552 -0.845496
upperback 0.879592 3.11215 -1.18843
thorax -1.3054 1.55598 -0.901313
lowerneck -2.60869 -4.87986 -7.30921
upperneck 13.3036 -6.73844 5.25297
head 4.8418 -3.37562 2.46798
rclavicle -1.95057e-015 -1.27222e-014
rhumerus 48.6234 14.8405 -14.0821
rradius 98.2601
rwrist -40.4567
rhand -5.78363 29.738
rfingers 7.12502
rthumb 20.0403 0.751489
lclavicle -1.95057e-015 -1.27222e-014
lhumerus 2.12645 -45.9698 88.3208
lradius 97.4934
lwrist 4.48589
lhand -32.7873 9.5302
lfingers 7.12502
lthumb -6.00889 39.425
rfemur -9.8552 1.56427 17.724
rtibia 29.3058
rfoot -17.335 -14.7776
rtoes -14.1321
lfemur -7.48535 -3.22433 -19.9392
ltibia 27.2066
lfoot -18.7549 9.88574
ltoes -15.2592
2735
root -0.21359 17.8387 -1.78337 -0.844246 -1.4515 1.42214
lowerback 3.965 2.396 -0.95066
upperback 0.899382 3.13527 -1.21547
thorax -1.27958 1.56781 -0.870209
lowerneck -2.51033 -4.8761 -7.32065
upperneck 13.2285 -6.73143 5.21778
head 4.80105 -3.37607 2.4623
rclavicle 3.65143e-014 -1.47101e-014
rhumerus 48.6053 16.2036 -12.806
rradius 99.1394
rwrist -40.499
rhand -5.73539 29.5608
rfingers 7.12502
rthumb 20.0867 0.579174
lclavicle 3.65143e-014 -1.47101e-014
lhumerus 2.08366 -46.0652 88.321
lradius 97.6015
lwrist 4.47553
lhand -32.7768 9.3057
lfingers 7.12502
lthumb -5.99876 39.2008
rfemur -9.83606 1.56267 17.6639
rtibia 29.4026
rfoot -17.4242 -14.7696
rtoes -13.9669
lfemur -7.49668 -3.22852 -19.9978
ltibia 27.3253
lfoot -18.8573 9.86083
ltoes -15.3621
2736
root -0.215167 17.8351 -1.78112 -0.873114 -1.41701 1.35695
lowerback 3.94146 2.39096 -0.934413
upperback 0.910288 3.1302 -1.19014
thorax -1.25583 1.56524 -0.851658
lowerneck -2.52522 -4.84532 -7.37069
upperneck 13.2909 -6.68701 5.21658
head 4.82156 -3.35656 2.47198
rclavicle -2.31087e-015 2.18663e-015
rhumerus 48.7115 17.6405 -11.5631
rradius 99.98
rwrist -40.2182
rhand -5.77916 29.5133
rfingers 7.12502
rthumb 20.0446 0.527274
lclavicle -2.31087e-015 2.18663e-015
lhumerus 1.98352 -46.1095 88.3586
lradius 97.6919
lwrist 4.28636
lhand -32.9325 9.13994
lfingers 7.12502
lthumb -6.14903 39.0307
rfemur -9.83956 1.55544 17.7465
rtibia 29.5135
rfoot -17.4705 -14.8073
rtoes -14.0753
lfemur -7.50638 -3.23174 -19.9127
ltibia 27.412
lfoot -18.8916 9.84358
ltoes -15.5322
2737
root -0.21538 17.8316 -1.7788 -0.882376 -1.37921 1.29264
lowerback 3.88735 2.40525 -0.857109
upperback 0.921135 3.15335 -1.20486
thorax -1.20932 1.57666 -0.907995
lowerneck -2.47403 -4.82718 -7.33977
upperneck 13.2802 -6.66448 5.19434
head 4.80637 -3.34597 2.46286
rclavicle -3.11595e-014 8.54774e-015
rhumerus 48.7873 19.0308 -10.3474
rradius 100.706
rwrist -39.9939
rhand -5.66188 29.5366
rfingers 7.12502
rthumb 20.1574 0.562421
lclavicle -3.11595e-014 8.54774e-015
lhumerus 1.92754 -46.2324 88.3358
lradius 97.8027
lwrist 4.01249
lhand -33.0632 9.10399
lfingers 7.12502
lthumb -6.27519 38.991
rfemur -9.89241 1.49559 17.8211
rtibia 29.6771
rfoot -17.5509 -14.8285
rtoes -14.1212
lfemur -7.51493 -3.26267 -19.8409
ltibia 27.4638
lfoot -18.8971 9.81777
ltoes -15.4743
2738
root -0.216529 17.8285 -1.77644 -0.955532 -1.32006 1.3565
lowerback 3.88018 2.39879 -0.958847
upperback 0.966471 3.14128 -1.21833
thorax -1.16362 1.57083 -0.862892
lowerneck -2.43528 -4.82117 -7.40685
upperneck 13.2671 -6.65796 5.22798
head 4.79877 -3.34474 2.48557
rclavicle -2.67987e-014 -8.34896e-015
rhumerus 48.9604 20.346 -9.14317
rradius 101.38
rwrist -39.7882
rhand -5.55479 29.3842
rfingers 7.12502
rthumb 20.2603 0.420859
lclavicle -2.67987e-014 -8.34896e-015
lhumerus 1.85776 -46.2229 88.3146
lradius 97.91
lwrist 3.79527
lhand -33.2734 9.00153
lfingers 7.12502
lthumb -6.47814 38.8825
rfemur -9.86092 1.39898 17.7555
rtibia 29.8559
rfoot -17.6626 -14.7229
rtoes -13.6757
lfemur -7.44945 -3.31051 -19.916
ltibia 27.5054
lfoot -18.9376 9.79054
ltoes -15.4109
2739
root -0.218823 17.8263 -1.77299 -1.03834 -1.28832 1.484
lowerback 3.89098 2.40231 -1.13831
upperback 1.01445 3.13893 -1.2493
thorax -1.12831 1.56988 -0.793681
lowerneck -2.43402 -4.81845 -7.40772
upperneck 13.278 -6.65317 5.21736
head 4.80132 -3.34301 2.48268
rclavicle -1.21756e-014 5.36719e-015
rhumerus 49.1248 21.6208 -7.98206
rradius 102.086
rwrist -39.4527
rhand -5.4823 29.4547
rfingers 7.12502
rthumb 20.33 0.498784
lclavicle -1.21756e-014 5.36719e-015
lhumerus 1.8098 -46.2063 88.3252
lradius 97.9425
lwrist 3.60526
lhand -33.5431 8.75819
lfingers 7.12502
lthumb -6.73847 38.631
rfemur -9.78207 1.30544 17.6192
rtibia 30.0295
rfoot -17.7831 -14.4906
rtoes -12.6319
lfemur -7.36672 -3.33825 -20.0601
ltibia 27.5426
lfoot -18.961 9.80069
ltoes -15.6257
2740
root -0.22025 17.8228 -1.77026 -1.09154 -1.26445 1.51644
lowerback 3.88718 2.40727 -1.20823
upperback 1.04131 3.14307 -1.26667
thorax -1.10139 1.57199 -0.771762
lowerneck -2.46869 -4.81552 -7.42079
upperneck 13.3654 -6.65184 5.2398
head 4.83502 -3.34132 2.49047
rclavicle 8.43592e-015 -3.97569e-016
rhumerus 49.3267 22.8871 -6.8808
rradius 102.864
rwrist -39.1581
rhand -5.17059 29.5465
rfingers 7.12502
rthumb 20.6295 0.622768
lclavicle 8.43592e-015 -3.97569e-016
lhumerus 1.74723 -46.2096 88.3547
lradius 98.007
lwrist 3.52308
lhand -33.6289 8.58056
lfingers 7.12502
lthumb -6.82136 38.4507
rfemur -9.80064 1.29233 17.5862
rtibia 30.181
rfoot -17.8799 -14.5084
rtoes -12.59
lfemur -7.33921 -3.29283 -20.0896
ltibia 27.6081
lfoot -18.967 9.74271
ltoes -15.7286
2741
root -0.220744 17.816 -1.76775 -1.10889 -1.20448 1.58103
lowerback 3.81683 2.39027 -1.29688
upperback 1.07532 3.11891 -1.28715
thorax -1.03088 1.55987 -0.737929
lowerneck -2.46593 -4.80168 -7.45166
upperneck 13.385 -6.63342 5.2533
head 4.84086 -3.3331 2.50074
rclavicle -1.61885e-014 9.93923e-016
rhumerus 49.7116 24.1416 -5.85155
rradius 103.428
rwrist -38.7795
rhand -5.01997 29.6195
rfingers 7.12502
rthumb 20.7742 0.711519
lclavicle -1.61885e-014 9.93923e-016
lhumerus 1.61121 -46.1395 88.453
lradius 98.1407
lwrist 3.41358
lhand -33.5306 8.51385
lfingers 7.12502
lthumb -6.72647 38.387
rfemur -9.88279 1.2682 17.5083
rtibia 30.2824
rfoot -17.9139 -14.7412
rtoes -13.6168
lfemur -7.38545 -3.28362 -20.1589
ltibia 27.7207
lfoot -19.0138 9.69425
ltoes -15.608
2742
root -0.220678 17.8077 -1.76779 -1.15671 -1.17864 1.5479
lowerback 3.81999 2.4181 -1.2607
upperback 1.11861 3.15783 -1.31049
thorax -0.984858 1.57919 -0.782641
lowerneck -2.48095 -4.84038 -7.39986
upperneck 13.3918 -6.68783 5.24713
head 4.84709 -3.3573 2.4867
rclavicle -8.94531e-016 -8.34896e-015
rhumerus 49.9813 25.3074 -4.97699
rradius 103.817
rwrist -38.3084
rhand -4.97545 29.6901
rfingers 7.12502
rthumb 20.817 0.78683
lclavicle -8.94531e-016 -8.34896e-015
lhumerus 1.58669 -46.2249 88.4172
lradius 98.2924
lwrist 3.16065
lhand -33.6088 8.74144
lfingers 7.12502
lthumb -6.80197 38.6122
rfemur -9.87639 1.27038 17.5505
rtibia 30.3314
rfoot -17.9236 -14.8731
rtoes -14.2549
lfemur -7.42208 -3.27759 -20.1187
ltibia 27.8755
lfoot -19.1991 9.56334
ltoes -14.9812
